<svg width="490" height="62" viewBox="0 0 490 62" fill="none" xmlns="http://www.w3.org/2000/svg">
<path d="M486.925 38.8501C486.525 38.8501 486.042 38.6835 485.475 38.3501C485.175 38.1501 485.025 37.8835 485.025 37.5501C485.025 37.1501 485.342 36.6501 485.975 36.0501C486.642 35.4501 487.492 35.1501 488.525 35.1501C489.125 35.1501 489.425 35.2835 489.425 35.5501C489.425 35.6835 489.325 35.8335 489.125 36.0001C488.725 36.3335 488.442 36.7168 488.275 37.1501C488.109 37.5835 487.942 37.9668 487.775 38.3001C487.609 38.6668 487.325 38.8501 486.925 38.8501Z" fill="white"/>
<path d="M474.563 35.35C473.33 35.35 472.497 34.6667 472.063 33.3001C471.63 31.9001 471.413 30.1834 471.413 28.15C471.413 27.05 471.447 25.9834 471.513 24.9501C471.58 23.8834 471.63 23 471.663 22.3C471.13 22.2334 470.613 22.1334 470.113 22C469.647 21.8334 469.28 21.6667 469.013 21.5C468.98 21.7334 468.847 22.2167 468.613 22.95C468.38 23.65 468.097 24.4667 467.763 25.4001C467.463 26.3334 467.13 27.25 466.763 28.15C466.397 29.05 466.047 29.8 465.713 30.4C465.38 30.9667 465.08 31.25 464.813 31.25C464.68 31.25 464.613 31.1501 464.613 30.9501C464.613 30.6834 464.73 30.3167 464.963 29.85C465.63 28.4834 466.23 27.0834 466.763 25.65C467.297 24.2167 467.78 22.7334 468.213 21.2C467.88 21.0667 467.63 20.8334 467.463 20.5C467.33 20.1334 467.263 19.7334 467.263 19.3C467.263 18.1 467.43 17.1167 467.763 16.35C468.13 15.5834 468.53 15.0167 468.963 14.6501C469.397 14.2501 469.73 14.05 469.963 14.05C470.363 14.05 470.563 14.3834 470.563 15.05C470.563 15.3834 470.48 15.9 470.313 16.6C470.147 17.2667 469.947 17.9667 469.713 18.7001C469.48 19.4001 469.28 19.9667 469.113 20.4C469.113 20.4 469.213 20.4667 469.413 20.6C469.613 20.7334 469.83 20.8 470.063 20.8C470.397 20.8 470.713 20.6001 471.013 20.2001C471.347 19.7667 471.73 19.3501 472.163 18.9501C472.63 18.5167 473.213 18.3 473.913 18.3C474.28 18.3 474.597 18.35 474.863 18.45C475.13 18.5167 475.263 18.65 475.263 18.85V19C474.93 19.8334 474.68 20.9334 474.513 22.3C474.347 23.6334 474.263 24.9834 474.263 26.35C474.263 27.55 474.33 28.6834 474.463 29.75C474.597 30.7834 474.797 31.6167 475.063 32.25C475.363 32.8834 475.713 33.2 476.113 33.2C476.513 33.2 476.897 32.9834 477.263 32.55C477.63 32.1167 477.947 31.65 478.213 31.15C478.513 30.65 478.713 30.2834 478.813 30.05C479.513 28.75 479.947 27.9167 480.113 27.55C480.28 27.15 480.497 26.9501 480.763 26.9501C480.863 26.9501 480.913 27.0167 480.913 27.1501C480.913 27.2167 480.88 27.3834 480.813 27.65C480.413 28.75 479.913 29.9 479.313 31.1C478.747 32.2667 478.063 33.2667 477.263 34.1C476.463 34.9334 475.563 35.35 474.563 35.35Z" fill="white"/>
<path d="M453.549 37.2C452.415 37.2 451.532 36.8333 450.899 36.1C450.299 35.3667 449.882 34.4333 449.649 33.3C449.449 32.1333 449.349 30.9667 449.349 29.8C449.349 29 449.382 28.25 449.449 27.55C449.515 26.8167 449.582 26.1833 449.649 25.65C449.815 24.2833 450.032 22.9667 450.299 21.7C450.565 20.4333 450.815 19.35 451.049 18.45C451.315 17.55 451.482 16.9667 451.549 16.7C451.682 16.2333 451.932 16 452.299 16C452.665 16 453.082 16.25 453.549 16.75C454.015 17.2167 454.349 17.6 454.549 17.9C455.315 18.1333 456.065 18.4167 456.799 18.75C457.532 19.05 458.132 19.3833 458.599 19.75C459.099 20.1167 459.349 20.5167 459.349 20.95C459.349 21.7833 458.999 22.6167 458.299 23.45C457.599 24.2833 456.715 25.05 455.649 25.75C454.582 26.45 453.499 27.05 452.399 27.55C452.299 28.35 452.249 29.15 452.249 29.95C452.249 31.2833 452.415 32.45 452.749 33.45C453.082 34.45 453.649 34.95 454.449 34.95C455.149 34.95 455.815 34.7 456.449 34.2C457.115 33.7 457.732 33.0667 458.299 32.3C458.865 31.5333 459.365 30.7667 459.799 30C460.265 29.2 460.615 28.5333 460.849 28C460.915 27.8 461.065 27.7 461.299 27.7C461.432 27.7 461.499 27.85 461.499 28.15C461.499 28.4167 461.299 28.9833 460.899 29.85C460.499 30.65 460.082 31.4167 459.649 32.15C459.249 32.85 458.849 33.4667 458.449 34C457.882 34.7333 457.182 35.45 456.349 36.15C455.549 36.85 454.615 37.2 453.549 37.2ZM452.549 26.15C453.715 25.5167 454.749 24.7667 455.649 23.9C456.582 23 457.049 22.0333 457.049 21C457.049 20.6333 456.765 20.2667 456.199 19.9C455.665 19.5 455.032 19.1667 454.299 18.9C453.899 19.9667 453.549 21.1 453.249 22.3C452.982 23.5 452.749 24.7833 452.549 26.15Z" fill="white"/>
<path d="M425.438 61.8002C424.072 61.8002 423.005 61.2002 422.238 60.0002C421.472 58.8002 420.922 57.2502 420.588 55.3502C420.288 53.4835 420.138 51.5335 420.138 49.5002C420.138 48.3669 420.172 47.2169 420.238 46.0502C420.305 44.9169 420.388 43.8169 420.488 42.7502L419.738 42.9002C419.605 42.9002 419.388 42.7669 419.088 42.5002C418.822 42.2335 418.572 41.9502 418.338 41.6502C418.105 41.3502 417.988 41.1335 417.988 41.0002C417.988 40.5335 418.272 39.9835 418.838 39.3502C419.438 38.7502 420.205 38.1002 421.138 37.4002C421.138 37.2335 421.155 37.1169 421.188 37.0502C421.422 35.4835 421.755 33.6835 422.188 31.6502C422.655 29.6169 423.222 27.5002 423.888 25.3002C424.555 23.1002 425.322 20.9669 426.188 18.9002C424.288 18.5002 422.572 18.3002 421.038 18.3002C420.705 18.3002 420.388 18.3169 420.088 18.3502C419.788 18.3502 419.488 18.3669 419.188 18.4002C419.555 18.7002 419.855 19.1002 420.088 19.6002C420.322 20.1002 420.438 20.7002 420.438 21.4002C420.438 22.3335 420.205 23.4502 419.738 24.7502C419.305 26.0502 418.705 27.3835 417.938 28.7502C417.205 30.1169 416.355 31.4002 415.388 32.6002C414.422 33.7669 413.422 34.7169 412.388 35.4502C411.355 36.1835 410.355 36.5502 409.388 36.5502C408.188 36.5502 407.305 36.1669 406.738 35.4002C406.172 34.6002 405.888 33.6335 405.888 32.5002C405.888 31.3002 406.172 29.8335 406.738 28.1002C407.305 26.3669 407.905 24.7335 408.538 23.2002C407.972 23.5669 407.388 23.9002 406.788 24.2002C406.188 24.5002 405.655 24.6502 405.188 24.6502C404.855 24.6502 404.605 24.5669 404.438 24.4002C404.305 24.2335 404.238 24.0502 404.238 23.8502C404.238 23.6835 404.288 23.4335 404.388 23.1002C404.488 22.7669 404.655 22.4502 404.888 22.1502C405.155 21.8502 405.472 21.7002 405.838 21.7002C405.972 21.7002 406.038 21.7502 406.038 21.8502C406.038 21.8835 406.022 21.9169 405.988 21.9502C405.988 21.9502 405.988 21.9669 405.988 22.0002C405.955 22.0669 405.938 22.1335 405.938 22.2002C405.938 22.3335 406.022 22.4002 406.188 22.4002C406.288 22.4002 406.405 22.3835 406.538 22.3502C406.705 22.3169 406.872 22.2502 407.038 22.1502L409.638 20.7502L410.388 19.2502C410.588 18.8835 410.822 18.6335 411.088 18.5002C411.355 18.3335 411.605 18.2502 411.838 18.2502C412.205 18.2502 412.522 18.3169 412.788 18.4502C413.088 18.5502 413.355 18.6835 413.588 18.8502C413.988 18.6835 414.388 18.5335 414.788 18.4002C415.188 18.2335 415.605 18.1002 416.038 18.0002C417.072 17.7002 418.105 17.4669 419.138 17.3002C420.205 17.1335 421.305 17.0502 422.438 17.0502C423.105 17.0502 423.805 17.0835 424.538 17.1502C425.272 17.2169 426.022 17.3169 426.788 17.4502L427.438 16.1502C427.238 15.8169 427.088 15.4835 426.988 15.1502C426.922 14.8169 426.888 14.5169 426.888 14.2502C426.888 13.8835 426.938 13.6002 427.038 13.4002C427.238 12.8335 427.422 12.3669 427.588 12.0002C427.788 11.6335 428.055 11.4502 428.388 11.4502C428.922 11.4502 429.438 11.7002 429.938 12.2002C430.438 12.6669 430.688 13.0835 430.688 13.4502C430.688 13.4835 430.672 13.5335 430.638 13.6002C430.638 13.6335 430.638 13.6669 430.638 13.7002C430.338 14.3669 430.038 15.0835 429.738 15.8502C429.472 16.5835 429.188 17.3502 428.888 18.1502C430.522 18.7502 432.122 19.5169 433.688 20.4502C435.255 21.3502 436.538 22.3835 437.538 23.5502C438.572 24.6835 439.088 25.9169 439.088 27.2502V27.3502L440.688 26.5502C441.255 26.2502 441.688 26.0502 441.988 25.9502C442.288 25.8169 442.505 25.7502 442.638 25.7502C442.705 25.7502 442.738 25.7835 442.738 25.8502C442.738 25.9835 442.472 26.2669 441.938 26.7002C441.438 27.1002 441.005 27.4002 440.638 27.6002L438.938 28.4502C438.772 29.3835 438.388 30.3502 437.788 31.3502C437.222 32.3502 436.522 33.3669 435.688 34.4002C434.655 35.6669 433.405 36.8169 431.938 37.8502C430.472 38.8502 428.955 39.7002 427.388 40.4002C425.855 41.1335 424.388 41.7169 422.988 42.1502C422.588 45.1502 422.388 47.9502 422.388 50.5502C422.388 53.9502 422.755 56.4335 423.488 58.0002C424.222 59.6002 425.038 60.4002 425.938 60.4002C426.505 60.4002 426.972 60.2835 427.338 60.0502C427.705 59.8169 428.005 59.7002 428.238 59.7002C428.438 59.7002 428.538 59.7669 428.538 59.9002C428.538 59.8335 428.455 59.9669 428.288 60.3002C428.122 60.6335 427.805 60.9669 427.338 61.3002C426.905 61.6335 426.272 61.8002 425.438 61.8002ZM424.188 35.3502C425.522 34.5169 426.938 33.6835 428.438 32.8502C429.938 32.0169 431.405 31.2169 432.838 30.4502C434.305 29.6835 435.622 29.0169 436.788 28.4502C436.955 28.0835 437.072 27.7335 437.138 27.4002C437.238 27.0335 437.288 26.6835 437.288 26.3502C437.288 25.0835 436.588 23.9002 435.188 22.8002C433.822 21.6669 431.555 20.6002 428.388 19.6002C427.588 21.9335 426.822 24.4502 426.088 27.1502C425.388 29.8502 424.755 32.5835 424.188 35.3502ZM409.938 35.5002C410.638 35.5002 411.355 35.1835 412.088 34.5502C412.855 33.9169 413.605 33.1169 414.338 32.1502C415.072 31.1835 415.722 30.1835 416.288 29.1502C416.555 28.6835 416.855 28.0502 417.188 27.2502C417.555 26.4502 417.855 25.6002 418.088 24.7002C418.355 23.8002 418.488 22.9835 418.488 22.2502C418.488 21.5835 418.338 21.0335 418.038 20.6002C417.772 20.1335 417.255 19.9002 416.488 19.9002C416.122 19.9002 415.655 20.0002 415.088 20.2002C414.522 20.4002 413.922 20.6335 413.288 20.9002C413.155 21.0335 413.022 21.1835 412.888 21.3502C412.788 21.4835 412.705 21.6335 412.638 21.8002C412.005 22.9669 411.372 24.2669 410.738 25.7002C410.105 27.1002 409.572 28.4669 409.138 29.8002C408.738 31.1335 408.538 32.3002 408.538 33.3002C408.538 34.7669 409.005 35.5002 409.938 35.5002ZM423.388 39.6002C424.622 39.1002 425.722 38.5835 426.688 38.0502C427.655 37.5169 428.605 36.9002 429.538 36.2002C430.505 35.5002 431.522 34.6502 432.588 33.6502C433.222 33.0835 433.805 32.5002 434.338 31.9002C434.905 31.3002 435.405 30.7002 435.838 30.1002C433.338 31.4335 431.072 32.6835 429.038 33.8502C427.005 34.9835 425.272 36.0335 423.838 37.0002L423.388 39.6002ZM419.738 40.9502C419.905 40.8835 420.072 40.8169 420.238 40.7502C420.405 40.6835 420.555 40.6335 420.688 40.6002L420.888 39.2002C420.122 39.9002 419.738 40.4835 419.738 40.9502Z" fill="white"/>
<path d="M396.378 39.8502C395.911 39.8502 395.478 39.7835 395.078 39.6502C393.811 39.2835 392.794 38.5669 392.028 37.5002C391.294 36.4335 390.761 35.1335 390.428 33.6002C390.128 32.0669 389.978 30.4502 389.978 28.7502C389.978 27.8169 390.011 26.8835 390.078 25.9502C390.144 25.0169 390.244 24.1002 390.378 23.2002C390.644 21.3002 391.028 19.2002 391.528 16.9002C392.061 14.6002 392.661 12.2669 393.328 9.90019C393.994 7.53353 394.678 5.30019 395.378 3.20019C395.644 2.56686 395.878 2.05019 396.078 1.65019C396.278 1.25019 396.594 1.11686 397.028 1.2502C397.361 1.35019 397.694 1.51686 398.028 1.7502C398.394 1.9502 398.678 2.18353 398.878 2.45019C399.778 3.48353 400.228 4.93353 400.228 6.80019C400.228 8.50019 399.894 10.4169 399.228 12.5502C398.561 14.6502 397.678 16.7502 396.578 18.8502C395.511 20.9502 394.311 22.8835 392.978 24.6502C392.678 26.5835 392.528 28.4169 392.528 30.1502C392.528 31.5169 392.628 32.7835 392.828 33.9502C393.061 35.1169 393.411 36.1335 393.878 37.0002C394.278 37.7335 394.711 38.2335 395.178 38.5002C395.678 38.7669 396.144 38.9002 396.578 38.9002C397.044 38.9002 397.461 38.8169 397.828 38.6502C398.228 38.4835 398.544 38.3502 398.778 38.2502C399.044 38.0835 399.278 38.0002 399.478 38.0002C399.744 38.0002 399.778 38.1335 399.578 38.4002C399.444 38.5669 399.094 38.8502 398.528 39.2502C397.961 39.6502 397.244 39.8502 396.378 39.8502ZM393.328 22.5002C394.394 20.8335 395.361 19.0835 396.228 17.2502C397.128 15.3835 397.844 13.5669 398.378 11.8002C398.944 10.0002 399.228 8.4002 399.228 7.0002C399.228 6.46686 399.178 5.96686 399.078 5.5002C399.011 5.03353 398.878 4.61686 398.678 4.2502C397.544 7.08353 396.494 10.1002 395.528 13.3002C394.594 16.4669 393.861 19.5335 393.328 22.5002Z" fill="white"/>
<path d="M377.513 37.2C376.38 37.2 375.497 36.8333 374.863 36.1C374.263 35.3667 373.847 34.4333 373.613 33.3C373.413 32.1333 373.313 30.9667 373.313 29.8C373.313 29 373.347 28.25 373.413 27.55C373.48 26.8167 373.547 26.1833 373.613 25.65C373.78 24.2833 373.997 22.9667 374.263 21.7C374.53 20.4333 374.78 19.35 375.013 18.45C375.28 17.55 375.447 16.9667 375.513 16.7C375.647 16.2333 375.897 16 376.263 16C376.63 16 377.047 16.25 377.513 16.75C377.98 17.2167 378.313 17.6 378.513 17.9C379.28 18.1333 380.03 18.4167 380.763 18.75C381.497 19.05 382.097 19.3833 382.563 19.75C383.063 20.1167 383.313 20.5167 383.313 20.95C383.313 21.7833 382.963 22.6167 382.263 23.45C381.563 24.2833 380.68 25.05 379.613 25.75C378.547 26.45 377.463 27.05 376.363 27.55C376.263 28.35 376.214 29.15 376.214 29.95C376.214 31.2833 376.38 32.45 376.714 33.45C377.047 34.45 377.613 34.95 378.413 34.95C379.113 34.95 379.78 34.7 380.413 34.2C381.08 33.7 381.697 33.0667 382.263 32.3C382.83 31.5333 383.33 30.7667 383.763 30C384.23 29.2 384.58 28.5333 384.813 28C384.88 27.8 385.03 27.7 385.263 27.7C385.397 27.7 385.464 27.85 385.464 28.15C385.464 28.4167 385.263 28.9833 384.863 29.85C384.463 30.65 384.047 31.4167 383.613 32.15C383.213 32.85 382.813 33.4667 382.413 34C381.847 34.7333 381.147 35.45 380.313 36.15C379.513 36.85 378.58 37.2 377.513 37.2ZM376.513 26.15C377.68 25.5167 378.713 24.7667 379.613 23.9C380.547 23 381.013 22.0333 381.013 21C381.013 20.6333 380.73 20.2667 380.163 19.9C379.63 19.5 378.997 19.1667 378.263 18.9C377.863 19.9667 377.514 21.1 377.214 22.3C376.947 23.5 376.713 24.7833 376.513 26.15Z" fill="white"/>
<path d="M357.566 37.3502C356.5 37.3502 355.766 37.1002 355.366 36.6002C354.966 36.1002 354.766 35.4335 354.766 34.6002C354.766 33.5335 354.816 32.1669 354.916 30.5002C355.016 28.8335 355.066 27.2335 355.066 25.7002C355.066 23.9669 354.966 22.7169 354.766 21.9502C354.566 21.1835 354.183 20.8002 353.616 20.8002C353.483 20.8002 353.333 20.8335 353.166 20.9002C353 20.9669 352.833 21.0002 352.666 21.0002C352.3 21.0002 352.116 20.8669 352.116 20.6002C352.116 20.4669 352.333 20.3335 352.766 20.2002C353.2 20.0335 353.683 19.9002 354.216 19.8002C354.783 19.7002 355.266 19.6502 355.666 19.6502C356.3 19.6502 356.766 19.7169 357.066 19.8502C357.4 19.9835 357.616 20.3169 357.716 20.8502C357.85 21.3502 357.916 22.2002 357.916 23.4002C357.916 24.9002 357.833 26.6669 357.666 28.7002C357.533 30.7335 357.366 32.5835 357.166 34.2502C357.366 33.3835 357.766 32.3502 358.366 31.1502C358.966 29.9169 359.65 28.6502 360.416 27.3502C361.216 26.0169 362 24.7835 362.766 23.6502C363.533 22.4835 364.183 21.5002 364.716 20.7002C365.283 19.9002 365.616 19.4335 365.716 19.3002C366.15 18.7335 366.633 18.4502 367.166 18.4502C367.633 18.4502 368.016 18.6002 368.316 18.9002C368.616 19.1669 368.766 19.3835 368.766 19.5502C368.733 19.7835 368.466 20.1002 367.966 20.5002C367.5 20.8669 367.033 21.1835 366.566 21.4502C366 21.7502 365.35 22.3169 364.616 23.1502C363.916 23.9502 363.183 24.9002 362.416 26.0002C361.683 27.1002 360.983 28.2669 360.316 29.5002C359.683 30.7335 359.166 31.9335 358.766 33.1002C358.4 34.2669 358.216 35.2835 358.216 36.1502C358.216 36.2835 358.216 36.4169 358.216 36.5502C358.25 36.6502 358.266 36.7669 358.266 36.9002C358.266 37.2002 358.033 37.3502 357.566 37.3502Z" fill="white"/>
<path d="M340.902 37.2C339.769 37.2 338.886 36.8333 338.252 36.1C337.652 35.3667 337.236 34.4333 337.002 33.3C336.802 32.1333 336.702 30.9667 336.702 29.8C336.702 29 336.735 28.25 336.802 27.55C336.869 26.8167 336.936 26.1833 337.002 25.65C337.169 24.2833 337.385 22.9667 337.652 21.7C337.919 20.4333 338.169 19.35 338.402 18.45C338.669 17.55 338.835 16.9667 338.902 16.7C339.035 16.2333 339.285 16 339.652 16C340.019 16 340.435 16.25 340.902 16.75C341.369 17.2167 341.702 17.6 341.902 17.9C342.669 18.1333 343.419 18.4167 344.152 18.75C344.885 19.05 345.485 19.3833 345.952 19.75C346.452 20.1167 346.702 20.5167 346.702 20.95C346.702 21.7833 346.352 22.6167 345.652 23.45C344.952 24.2833 344.069 25.05 343.002 25.75C341.935 26.45 340.852 27.05 339.752 27.55C339.652 28.35 339.602 29.15 339.602 29.95C339.602 31.2833 339.769 32.45 340.102 33.45C340.436 34.45 341.002 34.95 341.802 34.95C342.502 34.95 343.169 34.7 343.802 34.2C344.469 33.7 345.085 33.0667 345.652 32.3C346.219 31.5333 346.719 30.7667 347.152 30C347.619 29.2 347.969 28.5333 348.202 28C348.269 27.8 348.419 27.7 348.652 27.7C348.785 27.7 348.852 27.85 348.852 28.15C348.852 28.4167 348.652 28.9833 348.252 29.85C347.852 30.65 347.435 31.4167 347.002 32.15C346.602 32.85 346.202 33.4667 345.802 34C345.235 34.7333 344.535 35.45 343.702 36.15C342.902 36.85 341.969 37.2 340.902 37.2ZM339.902 26.15C341.069 25.5167 342.102 24.7667 343.002 23.9C343.935 23 344.402 22.0333 344.402 21C344.402 20.6333 344.119 20.2667 343.552 19.9C343.019 19.5 342.385 19.1667 341.652 18.9C341.252 19.9667 340.902 21.1 340.602 22.3C340.336 23.5 340.102 24.7833 339.902 26.15Z" fill="white"/>
<path d="M328.387 42.8501C327.22 42.8501 326.187 42.1334 325.287 40.7001C324.22 39.0334 323.37 37.0668 322.737 34.8001C322.104 32.5334 321.62 30.0834 321.287 27.4501C320.72 28.3501 320.054 29.3001 319.287 30.3001C318.52 31.3001 317.67 32.2501 316.737 33.1501C315.804 34.0168 314.837 34.7334 313.837 35.3001C312.837 35.8334 311.82 36.1001 310.787 36.1001C309.82 36.1001 309.054 35.9334 308.487 35.6001C307.954 35.2668 307.554 34.8834 307.287 34.4501C307.054 33.9834 306.904 33.5501 306.837 33.1501C306.804 32.7501 306.787 32.4668 306.787 32.3001C306.787 31.3668 307.12 30.3501 307.787 29.2501C308.487 28.1501 309.454 27.1168 310.687 26.1501C311.954 25.1501 313.437 24.3334 315.137 23.7001C316.87 23.0668 318.754 22.7501 320.787 22.7501H320.837C320.77 21.5168 320.72 20.2668 320.687 19.0001C320.654 17.7334 320.637 16.4501 320.637 15.1501C320.637 13.3834 320.687 11.6334 320.787 9.9001C320.887 8.16676 321.054 6.6001 321.287 5.2001C321.554 3.76677 321.904 2.6501 322.337 1.8501C322.537 1.51676 322.837 1.3501 323.237 1.3501C324.104 1.3501 324.887 1.68343 325.587 2.3501C326.287 2.98343 326.854 3.7501 327.287 4.6501C327.72 5.5501 327.937 6.41676 327.937 7.2501C327.937 9.68343 327.504 12.2001 326.637 14.8001C325.77 17.4001 324.754 20.1334 323.587 23.0001V23.1501L324.287 23.4001C324.954 23.7334 325.504 24.1501 325.937 24.6501C326.404 25.1168 326.637 25.5334 326.637 25.9001C326.637 26.0334 326.587 26.1001 326.487 26.1001C326.387 26.1001 326.287 26.0168 326.187 25.8501C325.354 25.1168 324.52 24.6501 323.687 24.4501C323.954 27.2501 324.387 29.8334 324.987 32.2001C325.587 34.5334 326.37 36.5668 327.337 38.3001C327.904 39.3334 328.37 40.0334 328.737 40.4001C329.104 40.8001 329.42 41.0001 329.687 41.0001C329.954 41.0001 330.187 40.8334 330.387 40.5001C330.62 40.2001 330.804 40.0501 330.937 40.0501C331.037 40.0501 331.087 40.1501 331.087 40.3501V40.5501C331.02 40.7168 330.887 40.9834 330.687 41.3501C330.487 41.7168 330.204 42.0501 329.837 42.3501C329.47 42.6834 328.987 42.8501 328.387 42.8501ZM323.437 21.2001C324.137 19.4001 324.704 17.7834 325.137 16.3501C325.57 14.9168 325.954 13.3668 326.287 11.7001C326.387 11.1668 326.47 10.6168 326.537 10.0501C326.604 9.4501 326.637 8.88343 326.637 8.3501C326.637 7.38343 326.537 6.53343 326.337 5.80009C326.17 5.06676 325.887 4.63343 325.487 4.5001C324.887 5.0001 324.42 5.83343 324.087 7.0001C323.787 8.13343 323.57 9.4501 323.437 10.9501C323.337 12.4168 323.287 13.9001 323.287 15.4001C323.287 17.4001 323.337 19.3334 323.437 21.2001ZM310.237 34.9001C311.07 34.9001 311.987 34.6334 312.987 34.1001C314.02 33.5334 315.037 32.8168 316.037 31.9501C317.07 31.0834 318.02 30.1501 318.887 29.1501C319.787 28.1168 320.537 27.1334 321.137 26.2001L320.937 24.1001C320.07 24.1334 319.087 24.3834 317.987 24.8501C316.92 25.3168 315.82 25.9001 314.687 26.6001C313.587 27.3001 312.57 28.0668 311.637 28.9001C310.704 29.7001 309.937 30.5001 309.337 31.3001C308.77 32.0668 308.487 32.7668 308.487 33.4001C308.487 34.0001 308.804 34.4668 309.437 34.8001C309.57 34.8334 309.704 34.8668 309.837 34.9001C309.97 34.9001 310.104 34.9001 310.237 34.9001Z" fill="white"/>
<path d="M279.222 37.2C278.089 37.2 277.206 36.8333 276.572 36.1C275.972 35.3667 275.556 34.4333 275.322 33.3C275.122 32.1333 275.022 30.9667 275.022 29.8C275.022 29 275.056 28.25 275.122 27.55C275.189 26.8167 275.256 26.1833 275.322 25.65C275.489 24.2833 275.706 22.9667 275.972 21.7C276.239 20.4333 276.489 19.35 276.722 18.45C276.989 17.55 277.156 16.9667 277.222 16.7C277.356 16.2333 277.606 16 277.972 16C278.339 16 278.756 16.25 279.222 16.75C279.689 17.2167 280.022 17.6 280.222 17.9C280.989 18.1333 281.739 18.4167 282.472 18.75C283.206 19.05 283.806 19.3833 284.272 19.75C284.772 20.1167 285.022 20.5167 285.022 20.95C285.022 21.7833 284.672 22.6167 283.972 23.45C283.272 24.2833 282.389 25.05 281.322 25.75C280.256 26.45 279.172 27.05 278.072 27.55C277.972 28.35 277.922 29.15 277.922 29.95C277.922 31.2833 278.089 32.45 278.422 33.45C278.756 34.45 279.322 34.95 280.122 34.95C280.822 34.95 281.489 34.7 282.122 34.2C282.789 33.7 283.406 33.0667 283.972 32.3C284.539 31.5333 285.039 30.7667 285.472 30C285.939 29.2 286.289 28.5333 286.522 28C286.589 27.8 286.739 27.7 286.972 27.7C287.106 27.7 287.172 27.85 287.172 28.15C287.172 28.4167 286.972 28.9833 286.572 29.85C286.172 30.65 285.756 31.4167 285.322 32.15C284.922 32.85 284.522 33.4667 284.122 34C283.556 34.7333 282.856 35.45 282.022 36.15C281.222 36.85 280.289 37.2 279.222 37.2ZM278.222 26.15C279.389 25.5167 280.422 24.7667 281.322 23.9C282.256 23 282.722 22.0333 282.722 21C282.722 20.6333 282.439 20.2667 281.872 19.9C281.339 19.5 280.706 19.1667 279.972 18.9C279.572 19.9667 279.222 21.1 278.922 22.3C278.656 23.5 278.422 24.7833 278.222 26.15Z" fill="white"/>
<path d="M259.275 37.3502C258.209 37.3502 257.475 37.1002 257.075 36.6002C256.675 36.1002 256.475 35.4335 256.475 34.6002C256.475 33.5335 256.525 32.1669 256.625 30.5002C256.725 28.8335 256.775 27.2335 256.775 25.7002C256.775 23.9669 256.675 22.7169 256.475 21.9502C256.275 21.1835 255.892 20.8002 255.325 20.8002C255.192 20.8002 255.042 20.8335 254.875 20.9002C254.709 20.9669 254.542 21.0002 254.375 21.0002C254.009 21.0002 253.825 20.8669 253.825 20.6002C253.825 20.4669 254.042 20.3335 254.475 20.2002C254.909 20.0335 255.392 19.9002 255.925 19.8002C256.492 19.7002 256.975 19.6502 257.375 19.6502C258.009 19.6502 258.475 19.7169 258.775 19.8502C259.109 19.9835 259.325 20.3169 259.425 20.8502C259.559 21.3502 259.625 22.2002 259.625 23.4002C259.625 24.9002 259.542 26.6669 259.375 28.7002C259.242 30.7335 259.075 32.5835 258.875 34.2502C259.075 33.3835 259.475 32.3502 260.075 31.1502C260.675 29.9169 261.359 28.6502 262.125 27.3502C262.925 26.0169 263.709 24.7835 264.475 23.6502C265.242 22.4835 265.892 21.5002 266.425 20.7002C266.992 19.9002 267.325 19.4335 267.425 19.3002C267.859 18.7335 268.342 18.4502 268.875 18.4502C269.342 18.4502 269.725 18.6002 270.025 18.9002C270.325 19.1669 270.475 19.3835 270.475 19.5502C270.442 19.7835 270.175 20.1002 269.675 20.5002C269.209 20.8669 268.742 21.1835 268.275 21.4502C267.709 21.7502 267.059 22.3169 266.325 23.1502C265.625 23.9502 264.892 24.9002 264.125 26.0002C263.392 27.1002 262.692 28.2669 262.025 29.5002C261.392 30.7335 260.875 31.9335 260.475 33.1002C260.109 34.2669 259.925 35.2835 259.925 36.1502C259.925 36.2835 259.925 36.4169 259.925 36.5502C259.959 36.6502 259.975 36.7669 259.975 36.9002C259.975 37.2002 259.742 37.3502 259.275 37.3502Z" fill="white"/>
<path d="M238.87 38.7501C237.703 38.7501 236.753 38.3835 236.02 37.6501C235.287 36.8835 234.72 35.9001 234.32 34.7001C233.953 33.5001 233.703 32.2168 233.57 30.8501C233.437 29.4501 233.37 28.1335 233.37 26.9001C233.37 26.1668 233.387 25.5001 233.42 24.9001C233.453 24.2668 233.487 23.7335 233.52 23.3001C233.587 22.1668 233.687 20.9501 233.82 19.6501C233.987 18.3168 234.153 16.9335 234.32 15.5001C233.187 15.3001 232.12 15.0835 231.12 14.8501C230.12 14.5835 229.287 14.3001 228.62 14.0001C228.52 13.9668 228.52 13.8001 228.62 13.5001C228.687 13.2001 228.837 12.9168 229.07 12.6501C229.303 12.3501 229.57 12.2001 229.87 12.2001C230.037 12.2001 230.17 12.2335 230.27 12.3001C231.203 12.8335 232.637 13.3668 234.57 13.9001C234.837 12.0335 235.137 10.1835 235.47 8.35012C235.803 6.51679 236.17 4.76679 236.57 3.10012C236.737 2.43346 236.887 1.90012 237.02 1.50013C237.187 1.10013 237.487 0.933458 237.92 1.00013C238.32 1.06679 238.737 1.21679 239.17 1.45013C239.603 1.68346 239.903 1.95013 240.07 2.25013C240.737 2.88346 241.22 3.68346 241.52 4.65012C241.82 5.58346 241.97 6.63346 241.97 7.80013C241.97 8.90012 241.853 10.0835 241.62 11.3501C241.387 12.5835 241.087 13.8668 240.72 15.2001C242.287 15.4335 243.837 15.6335 245.37 15.8001C246.903 15.9335 248.32 16.0001 249.62 16.0001C249.72 16.0001 249.77 16.0335 249.77 16.1001C249.77 16.2001 249.67 16.3335 249.47 16.5001C249.27 16.6668 249.003 16.7501 248.67 16.7501C247.67 16.7501 246.437 16.7168 244.97 16.6501C243.503 16.5501 241.97 16.4335 240.37 16.3001C239.803 18.1001 239.137 19.9168 238.37 21.7501C237.603 23.5835 236.803 25.3501 235.97 27.0501C235.937 27.4501 235.92 27.8501 235.92 28.2501C235.92 28.6168 235.92 28.9835 235.92 29.3501C235.92 30.8835 236.003 32.2835 236.17 33.5501C236.37 34.7835 236.67 35.7835 237.07 36.5501C237.37 37.1168 237.703 37.5168 238.07 37.7501C238.47 37.9501 238.853 38.0501 239.22 38.0501C239.587 38.0501 239.937 37.9835 240.27 37.8501C240.603 37.7168 240.853 37.6168 241.02 37.5501C241.387 37.3835 241.637 37.3168 241.77 37.3501C241.903 37.3835 241.887 37.4835 241.72 37.6501C241.62 37.7835 241.32 38.0001 240.82 38.3001C240.32 38.6001 239.67 38.7501 238.87 38.7501ZM239.62 15.0501C239.987 13.6835 240.287 12.3835 240.52 11.1501C240.753 9.91679 240.87 8.78346 240.87 7.75013C240.87 6.08346 240.57 4.73346 239.97 3.70012C239.503 5.40012 239.053 7.18345 238.62 9.05012C238.22 10.8835 237.837 12.7335 237.47 14.6001L239.62 15.0501ZM248.02 11.6501C247.82 11.6501 247.62 11.6168 247.42 11.5501C247.22 11.4835 247.003 11.4001 246.77 11.3001C246.637 11.2001 246.57 11.0668 246.57 10.9001C246.57 10.5335 246.803 10.1001 247.27 9.60012C247.737 9.10012 248.287 8.71679 248.92 8.45013C249.42 8.21679 249.837 8.10012 250.17 8.10012C250.47 8.10012 250.62 8.18346 250.62 8.35012C250.62 8.48346 250.47 8.65012 250.17 8.85012C249.803 9.11679 249.52 9.51679 249.32 10.0501C249.153 10.5835 248.953 10.9835 248.72 11.2501C248.587 11.5168 248.353 11.6501 248.02 11.6501ZM236.12 24.5001C236.72 23.1335 237.287 21.7501 237.82 20.3501C238.353 18.9501 238.837 17.5668 239.27 16.2001C238.937 16.1668 238.587 16.1335 238.22 16.1001C237.887 16.0335 237.553 15.9835 237.22 15.9501C236.987 17.4168 236.77 18.8668 236.57 20.3001C236.37 21.7335 236.22 23.1335 236.12 24.5001ZM243.57 36.7501C242.937 36.7501 242.503 36.5501 242.27 36.1501C242.037 35.7168 241.92 35.0835 241.92 34.2501C241.92 33.8501 241.937 33.4001 241.97 32.9001C242.037 32.4001 242.103 31.8335 242.17 31.2001C242.437 29.4335 242.703 28.0001 242.97 26.9001C243.237 25.8001 243.47 24.9168 243.67 24.2501C243.97 23.9168 244.27 23.7501 244.57 23.7501C245.037 23.7501 245.453 24.0168 245.82 24.5501C246.187 25.0835 246.437 25.4668 246.57 25.7001C246.403 26.0335 246.153 26.5668 245.82 27.3001C245.52 28.0335 245.22 28.8501 244.92 29.7501C244.653 30.6168 244.453 31.4335 244.32 32.2001C244.22 32.8001 244.17 33.2835 244.17 33.6501C244.17 34.6501 244.437 35.0335 244.97 34.8001C245.437 34.6001 245.92 34.2168 246.42 33.6501C246.953 33.0835 247.32 32.6668 247.52 32.4001C247.92 31.8001 248.287 31.1835 248.62 30.5501C248.987 29.8835 249.287 29.3001 249.52 28.8001C249.787 28.2668 249.953 27.9335 250.02 27.8001C250.22 27.3668 250.42 27.1501 250.62 27.1501C250.753 27.1501 250.82 27.2501 250.82 27.4501C250.82 27.5501 250.803 27.6835 250.77 27.8501C250.737 28.0168 250.67 28.2168 250.57 28.4501C250.303 29.1835 249.903 30.0668 249.37 31.1001C248.87 32.1001 248.253 33.0835 247.52 34.0501C247.087 34.6501 246.52 35.2501 245.82 35.8501C245.12 36.4501 244.37 36.7501 243.57 36.7501Z" fill="white"/>
<path d="M222.135 36.0001C221.768 36.0001 221.368 35.8668 220.935 35.6001C220.502 35.3001 220.202 34.9834 220.035 34.6501C220.035 33.8834 220.135 32.8334 220.335 31.5001C220.535 30.1668 220.752 28.8001 220.985 27.4001C221.252 25.9668 221.485 24.7501 221.685 23.7501C221.085 24.6834 220.402 25.7001 219.635 26.8001C218.868 27.9001 218.085 28.9334 217.285 29.9001C216.485 30.8334 215.668 31.6168 214.835 32.2501C214.035 32.8501 213.285 33.1501 212.585 33.1501C211.885 33.1501 211.335 32.9168 210.935 32.4501C210.535 31.9501 210.335 31.3834 210.335 30.7501C210.335 30.5834 210.368 30.3668 210.435 30.1001C210.735 28.5668 211.318 27.1334 212.185 25.8001C213.085 24.4334 214.102 23.2334 215.235 22.2001C216.402 21.1668 217.552 20.3501 218.685 19.7501C219.818 19.1501 220.785 18.8501 221.585 18.8501C222.185 18.8501 222.752 18.9834 223.285 19.2501C223.852 19.4834 224.385 19.8834 224.885 20.4501C224.985 20.5501 225.035 20.6668 225.035 20.8001C225.035 20.9668 224.935 21.1334 224.735 21.3001C224.502 22.1001 224.252 23.0668 223.985 24.2001C223.752 25.3001 223.518 26.4501 223.285 27.6501C223.085 28.8168 222.918 29.9001 222.785 30.9001C222.652 31.9001 222.585 32.6668 222.585 33.2001C222.585 33.5668 222.635 33.7501 222.735 33.7501C223.002 33.7501 223.335 33.4668 223.735 32.9001C224.168 32.3334 224.585 31.6834 224.985 30.9501C225.385 30.2168 225.735 29.5668 226.035 29.0001C226.368 28.4334 226.568 28.1501 226.635 28.1501C226.735 28.1501 226.785 28.2834 226.785 28.5501C226.785 29.1168 226.602 29.8168 226.235 30.6501C225.868 31.4834 225.418 32.3168 224.885 33.1501C224.385 33.9501 223.868 34.6334 223.335 35.2001C222.835 35.7334 222.435 36.0001 222.135 36.0001ZM212.985 31.3001C213.452 31.3001 214.035 31.0334 214.735 30.5001C215.468 29.9668 216.218 29.2834 216.985 28.4501C217.785 27.6168 218.552 26.7334 219.285 25.8001C220.052 24.8668 220.702 23.9834 221.235 23.1501C221.802 22.2834 222.202 21.5834 222.435 21.0501C221.768 21.0501 221.002 21.3001 220.135 21.8001C219.268 22.2668 218.385 22.8834 217.485 23.6501C216.585 24.3834 215.752 25.2001 214.985 26.1001C214.218 26.9668 213.602 27.8168 213.135 28.6501C212.668 29.4834 212.435 30.2001 212.435 30.8001C212.435 31.1334 212.618 31.3001 212.985 31.3001Z" fill="white"/>
<path d="M198.871 37.2C197.738 37.2 196.854 36.8333 196.221 36.1C195.621 35.3667 195.204 34.4333 194.971 33.3C194.771 32.1333 194.671 30.9667 194.671 29.8C194.671 29 194.704 28.25 194.771 27.55C194.838 26.8167 194.904 26.1833 194.971 25.65C195.138 24.2833 195.354 22.9667 195.621 21.7C195.888 20.4333 196.138 19.35 196.371 18.45C196.638 17.55 196.804 16.9667 196.871 16.7C197.004 16.2333 197.254 16 197.621 16C197.988 16 198.404 16.25 198.871 16.75C199.338 17.2167 199.671 17.6 199.871 17.9C200.638 18.1333 201.388 18.4167 202.121 18.75C202.854 19.05 203.454 19.3833 203.921 19.75C204.421 20.1167 204.671 20.5167 204.671 20.95C204.671 21.7833 204.321 22.6167 203.621 23.45C202.921 24.2833 202.038 25.05 200.971 25.75C199.904 26.45 198.821 27.05 197.721 27.55C197.621 28.35 197.571 29.15 197.571 29.95C197.571 31.2833 197.738 32.45 198.071 33.45C198.404 34.45 198.971 34.95 199.771 34.95C200.471 34.95 201.138 34.7 201.771 34.2C202.438 33.7 203.054 33.0667 203.621 32.3C204.188 31.5333 204.688 30.7667 205.121 30C205.588 29.2 205.938 28.5333 206.171 28C206.238 27.8 206.388 27.7 206.621 27.7C206.754 27.7 206.821 27.85 206.821 28.15C206.821 28.4167 206.621 28.9833 206.221 29.85C205.821 30.65 205.404 31.4167 204.971 32.15C204.571 32.85 204.171 33.4667 203.771 34C203.204 34.7333 202.504 35.45 201.671 36.15C200.871 36.85 199.938 37.2 198.871 37.2ZM197.871 26.15C199.038 25.5167 200.071 24.7667 200.971 23.9C201.904 23 202.371 22.0333 202.371 21C202.371 20.6333 202.088 20.2667 201.521 19.9C200.988 19.5 200.354 19.1667 199.621 18.9C199.221 19.9667 198.871 21.1 198.571 22.3C198.304 23.5 198.071 24.7833 197.871 26.15Z" fill="white"/>
<path d="M183.909 35.35C182.676 35.35 181.842 34.6667 181.409 33.3001C180.976 31.9001 180.759 30.1834 180.759 28.15C180.759 27.05 180.792 25.9834 180.859 24.9501C180.926 23.8834 180.976 23 181.009 22.3C180.476 22.2334 179.959 22.1334 179.459 22C178.992 21.8334 178.626 21.6667 178.359 21.5C178.326 21.7334 178.192 22.2167 177.959 22.95C177.726 23.65 177.442 24.4667 177.109 25.4001C176.809 26.3334 176.476 27.25 176.109 28.15C175.742 29.05 175.392 29.8 175.059 30.4C174.726 30.9667 174.426 31.25 174.159 31.25C174.026 31.25 173.959 31.1501 173.959 30.9501C173.959 30.6834 174.076 30.3167 174.309 29.85C174.976 28.4834 175.576 27.0834 176.109 25.65C176.642 24.2167 177.126 22.7334 177.559 21.2C177.226 21.0667 176.976 20.8334 176.809 20.5C176.676 20.1334 176.609 19.7334 176.609 19.3C176.609 18.1 176.776 17.1167 177.109 16.35C177.476 15.5834 177.876 15.0167 178.309 14.6501C178.742 14.2501 179.076 14.05 179.309 14.05C179.709 14.05 179.909 14.3834 179.909 15.05C179.909 15.3834 179.826 15.9 179.659 16.6C179.492 17.2667 179.292 17.9667 179.059 18.7001C178.826 19.4001 178.626 19.9667 178.459 20.4C178.459 20.4 178.559 20.4667 178.759 20.6C178.959 20.7334 179.176 20.8 179.409 20.8C179.742 20.8 180.059 20.6001 180.359 20.2001C180.692 19.7667 181.076 19.3501 181.509 18.9501C181.976 18.5167 182.559 18.3 183.259 18.3C183.626 18.3 183.942 18.35 184.209 18.45C184.476 18.5167 184.609 18.65 184.609 18.85V19C184.276 19.8334 184.026 20.9334 183.859 22.3C183.692 23.6334 183.609 24.9834 183.609 26.35C183.609 27.55 183.676 28.6834 183.809 29.75C183.942 30.7834 184.142 31.6167 184.409 32.25C184.709 32.8834 185.059 33.2 185.459 33.2C185.859 33.2 186.242 32.9834 186.609 32.55C186.976 32.1167 187.292 31.65 187.559 31.15C187.859 30.65 188.059 30.2834 188.159 30.05C188.859 28.75 189.292 27.9167 189.459 27.55C189.626 27.15 189.842 26.9501 190.109 26.9501C190.209 26.9501 190.259 27.0167 190.259 27.1501C190.259 27.2167 190.226 27.3834 190.159 27.65C189.759 28.75 189.259 29.9 188.659 31.1C188.092 32.2667 187.409 33.2667 186.609 34.1C185.809 34.9334 184.909 35.35 183.909 35.35Z" fill="white"/>
<path d="M154.06 39.0001C152.127 39.0001 150.61 38.4834 149.51 37.4501C148.443 36.4168 147.91 35.1501 147.91 33.6501C147.91 32.0501 148.243 30.4501 148.91 28.8501C149.577 27.2168 150.477 25.6668 151.61 24.2001C152.744 22.7334 154.027 21.4334 155.46 20.3001C156.893 19.1668 158.41 18.2668 160.01 17.6001C161.61 16.9334 163.177 16.6001 164.71 16.6001C165.643 16.6001 166.41 16.7668 167.01 17.1001C167.61 17.4334 167.91 17.7668 167.91 18.1001C167.91 18.2001 167.877 18.2834 167.81 18.3501C167.677 18.4834 167.477 18.8334 167.21 19.4001C166.977 19.9334 166.727 20.5501 166.46 21.2501C166.227 21.9501 166.01 22.6668 165.81 23.4001C165.643 24.1001 165.56 24.7001 165.56 25.2001C165.493 25.5668 165.327 25.7501 165.06 25.7501C164.827 25.7501 164.543 25.4834 164.21 24.9501C163.91 24.3834 163.76 23.6334 163.76 22.7001C163.76 22.1001 163.877 21.4668 164.11 20.8001C164.377 20.1334 164.627 19.5334 164.86 19.0001C165.127 18.4334 165.26 18.0334 165.26 17.8001C165.26 17.6668 165.193 17.6001 165.06 17.6001C164.96 17.6001 164.86 17.6001 164.76 17.6001C164.06 17.6001 163.077 17.9168 161.81 18.5501C160.543 19.1501 159.06 20.2668 157.36 21.9001C156.227 23.0001 155.177 24.2834 154.21 25.7501C153.243 27.2168 152.46 28.7001 151.86 30.2001C151.294 31.7001 151.01 33.0834 151.01 34.3501C151.01 35.8168 151.377 36.7668 152.11 37.2001C152.877 37.6334 153.743 37.8501 154.71 37.8501C156.377 37.8501 158.043 37.5334 159.71 36.9001C161.41 36.2668 162.993 35.4001 164.46 34.3001C165.96 33.2001 167.21 31.9501 168.21 30.5501C168.243 30.4834 168.277 30.4501 168.31 30.4501C168.343 30.4168 168.36 30.4001 168.36 30.4001C168.427 30.4001 168.46 30.4668 168.46 30.6001C168.46 30.7668 168.41 31.0001 168.31 31.3001C168.243 31.6001 168.143 31.8334 168.01 32.0001C167.343 33.0334 166.393 34.1001 165.16 35.2001C163.927 36.2668 162.393 37.1668 160.56 37.9001C158.727 38.6334 156.56 39.0001 154.06 39.0001Z" fill="white"/>
<path d="M122.526 36.0001C122.159 36.0001 121.759 35.8668 121.326 35.6001C120.892 35.3001 120.592 34.9834 120.426 34.6501C120.426 33.8834 120.526 32.8334 120.726 31.5001C120.926 30.1668 121.142 28.8001 121.376 27.4001C121.642 25.9668 121.876 24.7501 122.076 23.7501C121.476 24.6834 120.792 25.7001 120.026 26.8001C119.259 27.9001 118.476 28.9334 117.676 29.9001C116.876 30.8334 116.059 31.6168 115.226 32.2501C114.426 32.8501 113.676 33.1501 112.976 33.1501C112.276 33.1501 111.726 32.9168 111.326 32.4501C110.926 31.9501 110.726 31.3834 110.726 30.7501C110.726 30.5834 110.759 30.3668 110.826 30.1001C111.126 28.5668 111.709 27.1334 112.576 25.8001C113.476 24.4334 114.492 23.2334 115.626 22.2001C116.792 21.1668 117.942 20.3501 119.076 19.7501C120.209 19.1501 121.176 18.8501 121.976 18.8501C122.576 18.8501 123.142 18.9834 123.676 19.2501C124.242 19.4834 124.776 19.8834 125.276 20.4501C125.376 20.5501 125.426 20.6668 125.426 20.8001C125.426 20.9668 125.326 21.1334 125.126 21.3001C124.892 22.1001 124.642 23.0668 124.376 24.2001C124.142 25.3001 123.909 26.4501 123.676 27.6501C123.476 28.8168 123.309 29.9001 123.176 30.9001C123.042 31.9001 122.976 32.6668 122.976 33.2001C122.976 33.5668 123.026 33.7501 123.126 33.7501C123.392 33.7501 123.726 33.4668 124.126 32.9001C124.559 32.3334 124.976 31.6834 125.376 30.9501C125.776 30.2168 126.126 29.5668 126.426 29.0001C126.759 28.4334 126.959 28.1501 127.026 28.1501C127.126 28.1501 127.176 28.2834 127.176 28.5501C127.176 29.1168 126.992 29.8168 126.626 30.6501C126.259 31.4834 125.809 32.3168 125.276 33.1501C124.776 33.9501 124.259 34.6334 123.726 35.2001C123.226 35.7334 122.826 36.0001 122.526 36.0001ZM113.376 31.3001C113.842 31.3001 114.426 31.0334 115.126 30.5001C115.859 29.9668 116.609 29.2834 117.376 28.4501C118.176 27.6168 118.942 26.7334 119.676 25.8001C120.442 24.8668 121.092 23.9834 121.626 23.1501C122.192 22.2834 122.592 21.5834 122.826 21.0501C122.159 21.0501 121.392 21.3001 120.526 21.8001C119.659 22.2668 118.776 22.8834 117.876 23.6501C116.976 24.3834 116.142 25.2001 115.376 26.1001C114.609 26.9668 113.992 27.8168 113.526 28.6501C113.059 29.4834 112.826 30.2001 112.826 30.8001C112.826 31.1334 113.009 31.3001 113.376 31.3001Z" fill="white"/>
<path d="M74.8775 39.3001C74.6775 39.3001 74.3775 39.2167 73.9775 39.0501C73.5775 38.8834 73.1942 38.65 72.8275 38.35C72.4942 38.0834 72.2609 37.7834 72.1275 37.45C71.8942 36.8834 71.7442 36.1 71.6775 35.1C71.6109 34.0667 71.5775 32.9334 71.5775 31.7001C71.5775 31.1001 71.5775 30.4667 71.5775 29.8C71.5775 29.1334 71.5942 28.4667 71.6275 27.8C71.2275 28.5667 70.6775 29.4167 69.9775 30.35C69.3109 31.2834 68.6109 32.1834 67.8775 33.0501C67.1442 33.9167 66.4609 34.6334 65.8275 35.2C65.2275 35.7334 64.7942 36 64.5275 36C64.1609 36 63.7609 35.8667 63.3275 35.6C62.8942 35.3 62.5942 34.9834 62.4275 34.6501C62.4275 33.8834 62.5275 32.8334 62.7275 31.5C62.9275 30.1667 63.1442 28.8 63.3775 27.4C63.6442 25.9667 63.8775 24.75 64.0775 23.75C63.4775 24.6834 62.7942 25.7 62.0275 26.8C61.2609 27.9 60.4775 28.9334 59.6775 29.9001C58.8775 30.8334 58.0609 31.6167 57.2275 32.25C56.4275 32.85 55.6775 33.1501 54.9775 33.1501C54.2775 33.1501 53.7275 32.9167 53.3275 32.4501C52.9275 31.9501 52.7275 31.3834 52.7275 30.75C52.7275 30.5834 52.7609 30.3667 52.8275 30.1C53.1275 28.5667 53.7109 27.1334 54.5775 25.8C55.4775 24.4334 56.4942 23.2334 57.6275 22.2001C58.7942 21.1667 59.9442 20.35 61.0775 19.75C62.2109 19.15 63.1775 18.85 63.9775 18.85C64.5775 18.85 65.1442 18.9834 65.6775 19.25C66.2442 19.4834 66.7775 19.8834 67.2775 20.4501C67.3775 20.5501 67.4275 20.6667 67.4275 20.8C67.4275 20.9667 67.3275 21.1334 67.1275 21.3C66.8942 22.1 66.6442 23.0667 66.3775 24.2C66.1442 25.3 65.9109 26.45 65.6775 27.65C65.4775 28.8167 65.3109 29.9001 65.1775 30.9001C65.0442 31.9001 64.9775 32.6667 64.9775 33.2C64.9775 33.5667 65.0275 33.75 65.1275 33.75C65.2609 33.75 65.5942 33.5 66.1275 33C66.6942 32.4667 67.3275 31.8167 68.0275 31.05C68.7275 30.25 69.4109 29.4501 70.0775 28.6501C70.7442 27.8501 71.2775 27.1834 71.6775 26.65C71.7109 25.5834 71.7442 24.5334 71.7775 23.5C71.8109 22.4334 71.8275 21.45 71.8275 20.55C71.8275 20.0167 71.8109 19.5167 71.7775 19.05C71.7775 18.5834 71.7609 18.1667 71.7275 17.8C71.6609 17.7334 71.4609 17.6834 71.1275 17.6501C70.8275 17.5834 70.5275 17.5334 70.2275 17.5C69.9609 17.4334 69.8275 17.4 69.8275 17.4C69.8275 17.3334 70.0775 17.1834 70.5775 16.95C71.1109 16.6834 71.8609 16.55 72.8275 16.55C73.7942 16.55 74.4275 16.7334 74.7275 17.1C75.0275 17.4667 75.1775 17.7834 75.1775 18.05C75.1775 18.15 75.1775 18.25 75.1775 18.35C75.1775 18.45 75.1609 18.55 75.1275 18.65C74.8609 19.95 74.6609 21.1334 74.5275 22.2001C74.3942 23.2334 74.2942 24.3001 74.2275 25.4001C74.1609 26.4667 74.1109 27.7167 74.0775 29.1501C74.1109 29.0501 74.2609 28.5334 74.5275 27.6C74.8275 26.6334 75.3109 25.1334 75.9775 23.1C76.5109 21.4 76.9442 20.3 77.2775 19.8C77.6109 19.2667 77.8942 18.9834 78.1275 18.9501C78.1942 18.9834 78.3775 19.0501 78.6775 19.1501C78.9775 19.2501 79.2775 19.4167 79.5775 19.65C79.8775 19.85 80.0275 20.1167 80.0275 20.4501V20.55C79.7942 21.7834 79.5775 23.1834 79.3775 24.75C79.2109 26.3167 79.1275 27.8334 79.1275 29.3C79.1275 30.2334 79.1609 31.1 79.2275 31.9C79.3275 32.7 79.4942 33.35 79.7275 33.85C79.7275 33.7167 79.8275 33.2834 80.0275 32.55C80.2609 31.8167 80.5275 30.9834 80.8275 30.05C81.1275 29.0834 81.4109 28.1667 81.6775 27.3C81.9442 26.4334 82.1442 25.7834 82.2775 25.35C82.5442 24.55 82.7775 24.0167 82.9775 23.75C83.2109 23.4834 83.5275 23.35 83.9275 23.35C84.4942 23.35 84.8942 23.7 85.1275 24.4C85.3942 25.0667 85.5609 25.9 85.6275 26.9C85.6942 27.9 85.7442 28.9001 85.7775 29.9001C85.8109 30.9001 85.8775 31.7501 85.9775 32.4501C86.1109 33.1167 86.3609 33.45 86.7275 33.45C87.1609 33.45 87.6109 33.1334 88.0775 32.5C88.5442 31.8334 88.9942 31.0667 89.4275 30.2001C89.8942 29.3334 90.3109 28.5834 90.6775 27.9501C91.0442 27.2834 91.3275 26.9501 91.5275 26.9501C91.6275 26.9501 91.6775 27.0334 91.6775 27.2001C91.6775 27.3334 91.6275 27.55 91.5275 27.85C91.0609 28.9834 90.5609 30.1167 90.0275 31.25C89.4942 32.3834 88.9442 33.3334 88.3775 34.1C87.8109 34.8667 87.2109 35.25 86.5775 35.25C85.7775 35.25 85.1442 35.0167 84.6775 34.5501C84.3442 34.2501 84.0775 33.7001 83.8775 32.9001C83.6775 32.0667 83.5109 31.2 83.3775 30.3C83.2442 29.4 83.1109 28.6334 82.9775 28C82.8775 27.3334 82.7609 27 82.6275 27C82.5275 27 82.3775 27.3001 82.1775 27.9001C82.0109 28.4667 81.8275 29.1834 81.6275 30.05C81.4275 30.9167 81.2275 31.8001 81.0275 32.7001C80.8609 33.5667 80.7109 34.3334 80.5775 35C80.4775 35.6667 80.4275 36.0834 80.4275 36.25C80.4275 36.65 80.2442 36.8834 79.8775 36.95C79.5442 37.0167 79.1109 37.0501 78.5775 37.0501C78.3442 37.0501 78.1109 36.6834 77.8775 35.95C77.6442 35.1834 77.4275 34.2167 77.2275 33.0501C77.0609 31.8501 76.9275 30.5834 76.8275 29.25C76.7275 27.9167 76.6775 26.6834 76.6775 25.55C76.6775 25.1834 76.6775 24.85 76.6775 24.55C76.6775 24.2167 76.6942 23.9167 76.7275 23.6501C76.4275 24.5834 76.0775 25.7 75.6775 27C75.2775 28.2667 74.9275 29.6334 74.6275 31.1C74.3609 32.5667 74.2275 34.0834 74.2275 35.6501C74.2275 36.4501 74.2942 37.1 74.4275 37.6C74.5609 38.0667 74.7609 38.5167 75.0275 38.95C75.0609 39.0167 75.0775 39.0834 75.0775 39.1501C75.0775 39.2501 75.0109 39.3001 74.8775 39.3001ZM55.3775 31.3C55.8442 31.3 56.4275 31.0334 57.1275 30.5C57.8609 29.9667 58.6109 29.2834 59.3775 28.4501C60.1775 27.6167 60.9442 26.7334 61.6775 25.8C62.4442 24.8667 63.0942 23.9834 63.6275 23.15C64.1942 22.2834 64.5942 21.5834 64.8275 21.05C64.1609 21.05 63.3942 21.3 62.5275 21.8C61.6609 22.2667 60.7775 22.8834 59.8775 23.6501C58.9775 24.3834 58.1442 25.2 57.3775 26.1C56.6109 26.9667 55.9942 27.8167 55.5275 28.6501C55.0609 29.4834 54.8275 30.2 54.8275 30.8C54.8275 31.1334 55.0109 31.3 55.3775 31.3Z" fill="white"/>
<path d="M10.6918 43.8501C9.3918 43.8501 8.3918 43.5501 7.6918 42.9501C6.95847 42.3834 6.45847 41.9334 6.1918 41.6001L2.5918 41.8001C2.42513 41.8001 2.20846 41.6001 1.9418 41.2001C1.6418 40.8334 1.3918 40.4168 1.1918 39.9501C0.958462 39.5168 0.841797 39.2168 0.841797 39.0501C0.841797 38.9834 0.875129 38.9501 0.941795 38.9501C1.9418 39.0168 2.97513 39.0668 4.04179 39.1001C5.10846 39.1334 6.20846 39.1501 7.3418 39.1501C8.60846 39.1501 9.8918 39.1168 11.1918 39.0501C12.4918 39.0168 13.8085 38.9668 15.1418 38.9001C16.0418 37.2001 16.8418 35.0834 17.5418 32.5501C18.2751 29.9834 18.9085 27.2001 19.4418 24.2001C20.0085 21.1668 20.4751 18.0834 20.8418 14.9501C21.2418 11.8168 21.5418 8.81676 21.7418 5.9501C19.6751 6.41676 17.7251 7.0001 15.8918 7.7001C14.0918 8.4001 12.5585 9.1501 11.2918 9.9501H11.2418C11.1751 9.9501 11.1418 9.83343 11.1418 9.6001C11.1418 9.3001 11.1751 8.93343 11.2418 8.5001C11.3418 8.06677 11.4418 7.68343 11.5418 7.3501C11.6751 6.98343 11.7918 6.78343 11.8918 6.7501C13.0585 6.2501 14.5085 5.78343 16.2418 5.3501C18.0085 4.91677 19.8751 4.5501 21.8418 4.2501L21.9918 2.3001C22.0251 1.9001 22.3085 1.6001 22.8418 1.4001C23.4085 1.2001 23.9918 1.1001 24.5918 1.1001C25.2585 1.1001 25.6918 1.21677 25.8918 1.4501C26.1251 1.6501 26.2418 1.98343 26.2418 2.4501C26.2418 2.6501 26.2251 2.8501 26.1918 3.05009C26.1585 3.2501 26.1251 3.48343 26.0918 3.7501C27.3918 3.6501 28.6751 3.6001 29.9418 3.6001C30.9085 3.6001 31.9251 3.6501 32.9918 3.7501C34.0918 3.8501 35.0085 3.98343 35.7418 4.1501C36.5085 4.31676 36.8918 4.51676 36.8918 4.7501C36.8918 4.78343 36.8585 4.8001 36.7918 4.8001C36.0585 4.76677 35.2585 4.7501 34.3918 4.7501C33.5585 4.71677 32.6918 4.7001 31.7918 4.7001C30.8585 4.7001 29.8918 4.7501 28.8918 4.8501C27.8918 4.91677 26.9085 5.01677 25.9418 5.1501C25.7085 6.98343 25.4085 9.0001 25.0418 11.2001C24.7085 13.4001 24.3085 15.6334 23.8418 17.9001C23.4085 20.1334 22.9585 22.2501 22.4918 24.2501C22.0585 26.2501 21.6251 27.9834 21.1918 29.4501C20.9918 30.1168 20.7085 30.9834 20.3418 32.0501C20.0085 33.0834 19.5918 34.1834 19.0918 35.3501C18.5918 36.5168 18.0085 37.6334 17.3418 38.7001C19.9751 38.4668 22.5085 38.1668 24.9418 37.8001C27.3751 37.4001 29.5251 36.9168 31.3918 36.3501H31.5418C31.7085 36.3501 31.7918 36.3834 31.7918 36.4501C31.7918 36.6834 31.3585 36.9501 30.4918 37.2501C29.6251 37.5501 28.4418 37.8668 26.9418 38.2001C25.4751 38.5668 23.8085 38.9334 21.9418 39.3001C20.1085 39.6668 18.2085 40.0001 16.2418 40.3001C15.4751 41.3334 14.6251 42.1834 13.6918 42.8501C12.7585 43.5168 11.7585 43.8501 10.6918 43.8501ZM10.7918 42.7001C11.9251 42.7001 13.0085 42.0001 14.0418 40.6001C12.8418 40.7668 11.6585 40.9334 10.4918 41.1001C9.35846 41.2668 8.25847 41.4001 7.1918 41.5001C7.5918 41.7334 8.0918 41.9834 8.6918 42.2501C9.25847 42.5501 9.95846 42.7001 10.7918 42.7001Z" fill="white"/>
</svg>
