<svg width="101" height="70" viewBox="0 0 101 70" fill="none" xmlns="http://www.w3.org/2000/svg">
<path d="M73.1681 65.9999C72.7415 65.9999 72.0481 65.5999 71.0881 64.7999C70.1281 64.0533 69.5148 63.1733 69.2481 62.1599C68.8748 60.8266 68.6348 59.0666 68.5281 56.8799C68.4215 54.6933 68.3681 52.3199 68.3681 49.7599C68.3681 47.0399 68.3948 44.2666 68.4481 41.4399C68.5015 38.5599 68.5281 35.9199 68.5281 33.5199C68.5281 32.3466 68.5281 31.2799 68.5281 30.3199C68.5281 29.3066 68.4748 28.4266 68.3681 27.6799C68.2615 27.5733 67.9414 27.4933 67.4081 27.4399C66.9281 27.3333 66.4481 27.2533 65.9681 27.1999C65.5415 27.0933 65.3281 27.0399 65.3281 27.0399C65.3281 26.9333 65.7281 26.6933 66.5281 26.3199C67.3815 25.8933 68.5814 25.6799 70.1281 25.6799C71.6748 25.6799 72.6881 25.9733 73.1681 26.5599C73.6481 27.1466 73.8881 27.6533 73.8881 28.0799C73.8881 28.2399 73.8881 28.3999 73.8881 28.5599C73.8881 28.7199 73.8615 28.8799 73.8081 29.0399C73.3815 31.1199 73.0614 33.0133 72.8481 34.7199C72.6348 36.3733 72.4748 38.0799 72.3681 39.8399C72.2615 41.5466 72.1814 43.5466 72.1281 45.8399C72.1814 45.6799 72.4214 44.8533 72.8481 43.3599C73.3281 41.8133 74.1015 39.4133 75.1681 36.1599C76.0215 33.4399 76.7148 31.6799 77.2481 30.8799C77.7815 30.0266 78.2348 29.5733 78.6081 29.5199C78.7148 29.5733 79.0081 29.6799 79.4881 29.8399C79.9681 29.9999 80.4481 30.2666 80.9281 30.6399C81.4081 30.9599 81.6481 31.3866 81.6481 31.9199V32.0799C81.2748 34.0533 80.9281 36.2933 80.6081 38.7999C80.3415 41.3066 80.2081 43.7333 80.2081 46.0799C80.2081 47.5733 80.2615 48.9599 80.3681 50.2399C80.5281 51.5199 80.7948 52.5599 81.1681 53.3599C81.1681 53.1466 81.3281 52.4533 81.6481 51.2799C82.0215 50.1066 82.4481 48.7733 82.9281 47.2799C83.4081 45.7333 83.8614 44.2666 84.2881 42.8799C84.7148 41.4933 85.0348 40.4533 85.2481 39.7599C85.6748 38.4799 86.0481 37.6266 86.3681 37.1999C86.7415 36.7733 87.2481 36.5599 87.8881 36.5599C88.7948 36.5599 89.4348 37.1199 89.8081 38.2399C90.2348 39.3066 90.5015 40.6399 90.6081 42.2399C90.7148 43.8399 90.7948 45.4399 90.8481 47.0399C90.9014 48.6399 91.0081 49.9999 91.1681 51.1199C91.3815 52.1866 91.7815 52.7199 92.3681 52.7199C93.0615 52.7199 93.7815 52.2133 94.5281 51.1999C95.2748 50.1333 95.9948 48.9066 96.6881 47.5199C97.4348 46.1333 98.1015 44.9333 98.6881 43.9199C99.2748 42.8533 99.7281 42.3199 100.048 42.3199C100.208 42.3199 100.288 42.4533 100.288 42.7199C100.288 42.9333 100.208 43.2799 100.048 43.7599C99.3015 45.5733 98.5015 47.3866 97.6481 49.1999C96.7948 51.0133 95.9148 52.5333 95.0081 53.7599C94.1014 54.9866 93.1414 55.5999 92.1281 55.5999C90.8481 55.5999 89.8348 55.2266 89.0881 54.4799C88.5548 53.9999 88.1281 53.1199 87.8081 51.8399C87.4881 50.5066 87.2215 49.1199 87.0081 47.6799C86.7948 46.2399 86.5815 45.0133 86.3681 43.9999C86.2081 42.9333 86.0215 42.3999 85.8081 42.3999C85.6481 42.3999 85.4081 42.8799 85.0881 43.8399C84.8215 44.7466 84.5281 45.8933 84.2081 47.2799C83.8881 48.6666 83.5681 50.0799 83.2481 51.5199C82.9815 52.9066 82.7415 54.1333 82.5281 55.1999C82.3681 56.2666 82.2881 56.9333 82.2881 57.1999C82.2881 57.8399 81.9948 58.2133 81.4081 58.3199C80.8748 58.4266 80.1815 58.4799 79.3281 58.4799C78.9548 58.4799 78.5814 57.8933 78.2081 56.7199C77.8348 55.4933 77.4881 53.9466 77.1681 52.0799C76.9015 50.1599 76.6881 48.1333 76.5281 45.9999C76.3681 43.8666 76.2881 41.8933 76.2881 40.0799C76.2881 39.4933 76.2881 38.9599 76.2881 38.4799C76.2881 37.9466 76.3148 37.4666 76.3681 37.0399C75.5148 39.4933 74.6348 42.4799 73.7281 45.9999C72.8215 49.4666 72.3681 53.2266 72.3681 57.2799C72.3681 58.9333 72.4481 60.4799 72.6081 61.9199C72.7681 63.3599 73.0348 64.4799 73.4081 65.2799C73.4614 65.3866 73.4881 65.5199 73.4881 65.6799C73.4881 65.8933 73.3815 65.9999 73.1681 65.9999Z" fill="white"/>
<path d="M62.4625 15.36C62.1958 15.36 62.0625 15.2534 62.0625 15.04C62.0625 14.8267 62.2225 14.56 62.5425 14.24C62.9692 13.7067 63.3692 12.8534 63.7425 11.68C64.1692 10.5067 64.5425 9.28003 64.8625 8.00003C65.2358 6.6667 65.5825 5.5467 65.9025 4.64003C66.2225 3.73336 66.5425 3.28003 66.8625 3.28003C67.1825 3.28003 67.5558 3.3867 67.9825 3.60003C68.4092 3.81336 68.8358 3.97336 69.2625 4.08003C69.4225 4.13336 69.5025 4.29337 69.5025 4.56003C69.5025 5.04003 69.3158 5.76003 68.9425 6.72003C68.5692 7.6267 68.1158 8.61337 67.5825 9.68003C67.0492 10.7467 66.4892 11.7334 65.9025 12.64C65.3158 13.4934 64.8092 14.08 64.3825 14.4C63.5292 15.04 62.8892 15.36 62.4625 15.36Z" fill="white"/>
<path d="M16.4651 69.36C14.3851 69.36 12.7851 68.88 11.6651 67.92C10.4917 67.0133 9.69174 66.2933 9.26508 65.76L3.50507 66.08C3.23841 66.08 2.89175 65.76 2.46508 65.12C1.98508 64.5333 1.58508 63.8666 1.26508 63.12C0.891742 62.4266 0.705078 61.9466 0.705078 61.68C0.705078 61.5733 0.758408 61.52 0.865074 61.52C2.46507 61.6266 4.11841 61.7066 5.82507 61.76C7.53174 61.8133 9.29175 61.84 11.1051 61.84C13.1317 61.84 15.1851 61.7866 17.2651 61.68C19.3451 61.6266 21.4517 61.5466 23.5851 61.44C25.0251 58.72 26.3051 55.3333 27.4251 51.28C28.5984 47.1733 29.6117 42.72 30.4651 37.92C31.3717 33.0666 32.1184 28.1333 32.7051 23.12C33.3451 18.1066 33.8251 13.3066 34.1451 8.71996C30.8384 9.46663 27.7184 10.4 24.7851 11.52C21.9051 12.64 19.4517 13.84 17.4251 15.12H17.3451C17.2384 15.12 17.1851 14.9333 17.1851 14.56C17.1851 14.08 17.2384 13.4933 17.3451 12.8C17.5051 12.1066 17.6651 11.4933 17.8251 10.96C18.0384 10.3733 18.2251 10.0533 18.3851 9.99996C20.2517 9.19996 22.5717 8.45329 25.3451 7.75996C28.1717 7.06663 31.1584 6.47996 34.3051 5.99996L34.5451 2.87996C34.5984 2.23996 35.0517 1.75996 35.9051 1.43996C36.8117 1.11996 37.7451 0.959961 38.7051 0.959961C39.7717 0.959961 40.4651 1.14663 40.7851 1.51996C41.1584 1.83996 41.3451 2.3733 41.3451 3.11996C41.3451 3.43996 41.3184 3.75996 41.2651 4.07996C41.2117 4.39996 41.1584 4.77329 41.1051 5.19996C43.1851 5.03996 45.2384 4.95996 47.2651 4.95996C48.8117 4.95996 50.4384 5.03996 52.1451 5.19996C53.9051 5.35996 55.3718 5.57329 56.5451 5.83996C57.7717 6.10663 58.3851 6.42663 58.3851 6.79996C58.3851 6.8533 58.3317 6.87996 58.2251 6.87996C57.0517 6.82663 55.7717 6.79996 54.3851 6.79996C53.0517 6.74663 51.6651 6.71996 50.2251 6.71996C48.7317 6.71996 47.1851 6.79996 45.5851 6.95996C43.9851 7.06663 42.4117 7.22663 40.8651 7.43996C40.4917 10.3733 40.0117 13.6 39.4251 17.12C38.8917 20.64 38.2517 24.2133 37.5051 27.84C36.8117 31.4133 36.0917 34.8 35.3451 38C34.6517 41.2 33.9584 43.9733 33.2651 46.32C32.9451 47.3866 32.4917 48.7733 31.9051 50.48C31.3717 52.1333 30.7051 53.8933 29.9051 55.76C29.1051 57.6266 28.1717 59.4133 27.1051 61.12C31.3184 60.7466 35.3717 60.2666 39.2651 59.68C43.1584 59.04 46.5984 58.2666 49.5851 57.36H49.8251C50.0917 57.36 50.2251 57.4133 50.2251 57.52C50.2251 57.8933 49.5317 58.32 48.1451 58.8C46.7584 59.28 44.8651 59.7866 42.4651 60.32C40.1184 60.9066 37.4517 61.4933 34.4651 62.08C31.5317 62.6666 28.4917 63.2 25.3451 63.68C24.1184 65.3333 22.7584 66.6933 21.2651 67.76C19.7717 68.8266 18.1717 69.36 16.4651 69.36ZM16.6251 67.52C18.4384 67.52 20.1717 66.4 21.8251 64.16C19.9051 64.4266 18.0117 64.6933 16.1451 64.96C14.3317 65.2266 12.5717 65.44 10.8651 65.6C11.5051 65.9733 12.3051 66.3733 13.2651 66.8C14.1717 67.28 15.2917 67.52 16.6251 67.52Z" fill="white"/>
</svg>
